:version 1.10
:name ASF
:units
  mass 1
  length 1
  angle deg
:documentation
  ASF file generated by Kaydara
:root
  axis xyz
  order  tx ty tz rx ry rz
  position 0 0 0
  orientation 0 0 0
:bonedata
  begin
    id 1
    name RightUpLegDummy
    direction -0.718183 -0.695806 0.00816078
    length 4.904
    axis 0 0 0 xyz
  end
  begin
    id 2
    name RightUpLeg
    direction 3.53989e-006 -0.995788 0.0916897
    length 17.4976
    axis -3.49089 -0.000906621 0.000287158 xyz
    dof rx ry rz
  end
  begin
    id 3
    name RightLeg
    direction 0.00371093 -0.995096 -0.0988418
    length 16.5821
    axis 3.68512 0.0193738 -0.131023 xyz
    dof rx ry rz
  end
  begin
    id 4
    name RightFoot
    direction 0.000791514 -0.46099 0.887405
    length 3.77069
    axis 4.84075e-005 -0.120479 -0.188788 xyz
    dof rx ry rz
  end
  begin
    id 5
    name RightToes
    direction 0.00124746 -0.014064 0.9999
    length 3.85082
    axis 0.00048216 0.542163 -0.142577 xyz
    dof rx ry rz
  end
  begin
    id 6
    name SpineDummy
    direction 8.36599e-015 1 5.97571e-016
    length 4.6813
    axis 0 0 0 xyz
  end
  begin
    id 7
    name Spine
    direction -4.63632e-008 0.999988 0.00495137
    length 10.1015
    axis -0.00138897 0.000121419 3.25764e-006 xyz
    dof rx ry rz
  end
  begin
    id 8
    name Spine1
    direction 0 0 0
    length 0
    axis -0.00138896 0.000121452 2.39764e-006 xyz
    dof rx ry rz
  end
  begin
    id 9
    name HEadDummy
    direction -3.91456e-008 0.999999 0.00127422
    length 3.43865
    axis -0.00138896 0.000121452 2.39764e-006 xyz
  end
  begin
    id 10
    name HEad
    direction -0.0222688 0.980941 0.193023
    length 5.12695
    axis -0.00138895 0.000121452 2.39764e-006 xyz
    dof rx ry rz
  end
  begin
    id 11
    name LeftShoulder1Dummy
    direction 0.998891 -0.0402508 -0.0244456
    length 3.5433
    axis -0.00138896 0.000121452 2.39764e-006 xyz
  end
  begin
    id 12
    name LeftShoulder1
    direction 0.99951 -0.000327743 0.0313091
    length 4.05031
    axis -0.00138896 0.000121452 2.39764e-006 xyz
    dof rx ry rz
  end
  begin
    id 13
    name LeftArm
    direction 0.998561 -0.00100054 -0.0536182
    length 10.3537
    axis -23.1894 0.134784 0.96751 xyz
    dof rx ry rz
  end
  begin
    id 14
    name LeftForeArm
    direction 0.998903 0.00866434 0.046012
    length 8.70632
    axis -9.91835 -0.06569 -0.177792 xyz
    dof rx ry rz
  end
  begin
    id 15
    name LeftHand
    direction 0.992938 -0.0411636 0.11126
    length 5.32135
    axis -0.00960227 -0.00340091 0.185174 xyz
    dof rx ry rz
  end
  begin
    id 16
    name RightShoulderDummy
    direction -0.998891 -0.0402509 -0.0244414
    length 3.5433
    axis -0.00138896 0.000121452 2.39764e-006 xyz
  end
  begin
    id 17
    name RightShoulder
    direction -0.99951 -0.000327827 0.0313133
    length 4.05031
    axis 0.215806 0.000203644 -0.00680151 xyz
    dof rx ry rz
  end
  begin
    id 18
    name RightArm
    direction -0.998573 -0.000999583 -0.053403
    length 10.3947
    axis -23.2009 -0.134239 -0.9641 xyz
    dof rx ry rz
  end
  begin
    id 19
    name RightForeArm
    direction -0.998898 0.00868026 0.0461306
    length 8.68355
    axis -9.92322 0.0658061 0.178869 xyz
    dof rx ry rz
  end
  begin
    id 20
    name RightHand
    direction -0.992843 -0.0414603 0.112003
    length 5.28593
    axis -0.00960634 0.00330671 -0.185226 xyz
    dof rx ry rz
  end
  begin
    id 21
    name LeftUpLegDummy
    direction 0.718183 -0.695806 0.00816078
    length 4.904
    axis 0 0 0 xyz
  end
  begin
    id 22
    name LeftUpLeg
    direction -6.8115e-006 -0.995793 0.0916336
    length 17.4976
    axis -3.48766 0.00143441 -0.000523914 xyz
    dof rx ry rz
  end
  begin
    id 23
    name LeftLeg
    direction -0.00601357 -0.995091 -0.0987824
    length 16.5821
    axis 3.68177 -0.00654038 -0.00028478 xyz
    dof rx ry rz
  end
  begin
    id 24
    name LeftFoot
    direction -0.00417578 -0.460984 0.887399
    length 3.77069
    axis 1.87232e-006 4.66002e-005 -8.1837e-006 xyz
    dof rx ry rz
  end
  begin
    id 25
    name LeftToes
    direction 0.00818058 -0.00485161 0.999955
    length 3.85048
    axis 1.06246e-005 4.65855e-005 -8.18502e-006 xyz
    dof rx ry rz
  end
:hierarchy
  begin
    root RightUpLegDummy SpineDummy LeftUpLegDummy
    RightUpLegDummy RightUpLeg
    RightUpLeg RightLeg
    RightLeg RightFoot
    RightFoot RightToes
    SpineDummy Spine
    Spine Spine1
    Spine1 HEadDummy LeftShoulder1Dummy RightShoulderDummy
    HEadDummy HEad
    LeftShoulder1Dummy LeftShoulder1
    LeftShoulder1 LeftArm
    LeftArm LeftForeArm
    LeftForeArm LeftHand
    RightShoulderDummy RightShoulder
    RightShoulder RightArm
    RightArm RightForeArm
    RightForeArm RightHand
    LeftUpLegDummy LeftUpLeg
    LeftUpLeg LeftLeg
    LeftLeg LeftFoot
    LeftFoot LeftToes
  end

:SAMPLES-PER-SECOND 30
:FULLY-SPECIFIED
:DEGREES
17
root  20.0752 30.6582 16.2332 -163.081 -8.28085 171.132
RightUpLeg  -33.3256 -4.58264 -42.4486
RightLeg  52.1655 1.18332 1.2519
RightFoot  -20.7572 5.10371 58.3705
RightToes  2.32829e-010 0 -3.6325e-017
Spine  25.5965 -3.10777 16.9721
Spine1  3.94476 7.68965 -34.8662
HEad  -17.6835 15.3586 -2.36088
LeftShoulder1  2.56463 -5.71753 -21.4591
LeftArm  -5.42965 21.2604 -41.0583
LeftForeArm  34.4405 -73.6355 -38.2487
LeftHand  -3.69732 -6.00511 36.733
RightShoulder  0.968285 -10.6876 -24.7983
RightArm  -82.9669 50.4774 -9.73757
RightForeArm  14.9725 48.3148 11.5019
RightHand  -2.97047 7.0838 -27.4458
LeftUpLeg  -40.5801 5.29656 30.4821
LeftLeg  32.4246 6.67032 4.88975
LeftFoot  7.7908 6.88927 -39.709
LeftToes  -5.54824e-011 -8.71001e-011 8.3852e-012
18
root  20.2876 31.1652 16.295 -164.914 -11.1175 171.236
RightUpLeg  -29.2489 -2.856 -41.1017
RightLeg  50.5748 -0.772365 -1.32805
RightFoot  -19.8415 4.63104 58.6875
RightToes  2.32829e-010 0 -3.6325e-017
Spine  26.1269 -2.86081 14.4959
Spine1  6.1935 6.91968 -29.5797
HEad  -17.0305 12.8465 -2.09718
LeftShoulder1  2.65068 -6.01817 -21.4863
LeftArm  -1.98033 21.7289 -41.5553
LeftForeArm  32.2754 -72.3691 -34.6249
LeftHand  -3.44236 -5.72392 35.1872
RightShoulder  0.633597 -9.76867 -20.8981
RightArm  -72.1886 50.8235 3.41165
RightForeArm  16.1848 51.3299 12.7988
RightHand  -2.8298 7.0166 -26.326
LeftUpLeg  -39.4527 7.55999 27.9978
LeftLeg  30.821 8.0574 5.52031
LeftFoot  11.9096 7.35426 -35.1211
LeftToes  -5.54824e-011 -8.71001e-011 8.3852e-012
19
root  20.0774 31.9633 16.1319 -166.133 -13.3353 171.126
RightUpLeg  -24.1255 -1.24495 -40.205
RightLeg  46.0492 -4.10527 -4.85532
RightFoot  -16.7634 2.93599 58.951
RightToes  2.32829e-010 0 -3.6325e-017
Spine  25.3882 -2.65988 12.4398
Spine1  8.7382 6.59098 -26.9506
HEad  -17.0679 9.29878 -1.45449
LeftShoulder1  2.46849 -5.64398 -20.5688
LeftArm  1.95112 20.2899 -41.1657
LeftForeArm  34.6297 -72.1981 -33.6337
LeftHand  -3.24356 -5.34454 34.3896
RightShoulder  0.197653 -7.57427 -14.9727
RightArm  -55.8292 44.4623 18.2243
RightForeArm  17.0356 53.9593 14.128
RightHand  -2.59852 6.77082 -24.7486
LeftUpLeg  -39.326 10.9021 23.7389
LeftLeg  32.6308 8.48209 6.13784
LeftFoot  13.7932 6.7578 -30.017
LeftToes  -5.54824e-011 -8.71001e-011 8.3852e-012
20
root  19.4634 32.9808 15.7325 -165.806 -15.4952 170.752
RightUpLeg  -18.5324 -0.851254 -40.0051
RightLeg  38.8789 -7.6119 -6.81672
RightFoot  -11.6343 0.0630568 59.7409
RightToes  2.32829e-010 0 -3.6325e-017
Spine  23.4955 -1.77769 8.69707
Spine1  10.4347 5.64257 -22.6159
HEad  -17.6292 5.36696 -1.16987
LeftShoulder1  2.18663 -4.68975 -20.2635
LeftArm  5.70415 19.5147 -41.4054
LeftForeArm  42.3795 -74.6185 -40.0264
LeftHand  -3.23589 -5.28369 34.4932
RightShoulder  -0.0480846 -5.61748 -6.88189
RightArm  -43.3596 34.9621 29.3789
RightForeArm  16.2703 56.6951 15.8746
RightHand  -2.53514 6.84243 -24.0302
LeftUpLeg  -40.3511 12.9718 18.8421
LeftLeg  34.6685 3.62917 3.04807
LeftFoot  10.7443 5.57908 -28.4445
LeftToes  -5.54824e-011 -8.71001e-011 8.3852e-012
21
root  18.459 34.2232 15.2267 -164.516 -17.4798 170.905
RightUpLeg  -12.8796 -0.961119 -39.6386
RightLeg  29.1649 -12.9112 -7.66267
RightFoot  -2.61381 -4.96411 59.2773
RightToes  2.32829e-010 0 -3.6325e-017
Spine  20.8868 -0.62319 3.99224
Spine1  11.493 3.88191 -15.4806
HEad  -17.9472 1.83672 -2.08887
LeftShoulder1  1.97214 -3.79028 -20.6223
LeftArm  8.97824 19.604 -42.9077
LeftForeArm  53.4821 -77.1893 -50.5515
LeftHand  -3.2079 -5.48036 33.6343
RightShoulder  -0.0654127 -4.09389 2.6698
RightArm  -35.8133 25.3022 34.906
RightForeArm  14.0844 59.1824 17.9049
RightHand  -2.44792 6.70446 -23.4867
LeftUpLeg  -40.7597 13.1253 14.2991
LeftLeg  34.3205 -5.3637 -3.5057
LeftFoot  4.19929 3.84001 -27.7209
LeftToes  -5.54824e-011 -8.71001e-011 8.3852e-012
22
root  17.1391 35.4989 14.7116 -162.809 -18.2929 172.388
RightUpLeg  -8.95151 -2.28817 -37.8945
RightLeg  18.3432 -20.3274 -8.36891
RightFoot  11.8945 -11.3806 52.7557
RightToes  2.32829e-010 0 -3.6325e-017
Spine  17.6574 0.077965 1.21528
Spine1  12.3722 2.47106 -9.34462
HEad  -18.551 -0.497387 -3.48152
LeftShoulder1  1.7985 -3.19854 -20.3952
LeftArm  11.3091 18.843 -45.5375
LeftForeArm  64.7062 -78.5245 -58.3018
LeftHand  -2.9496 -5.92055 29.9267
RightShoulder  0.100301 -2.91604 10.9727
RightArm  -30.1217 15.3848 37.1202
RightForeArm  13.3396 61.8164 20.3028
RightHand  -2.28415 6.22288 -22.8481
LeftUpLeg  -39.8654 11.5428 11.5238
LeftLeg  31.9498 -10.3662 -6.62293
LeftFoot  -2.08667 1.97838 -23.8818
LeftToes  -5.54824e-011 -8.71001e-011 8.3852e-012
23
root  15.7288 36.4702 14.2455 -161.234 -17.1994 174.878
RightUpLeg  -8.4069 -10.2846 -33.9847
RightLeg  8.71389 -20.5367 -8.54517
RightFoot  27.4776 -14.284 39.6877
RightToes  2.32829e-010 0 -3.6325e-017
Spine  14.4569 0.493478 -0.0295286
Spine1  13.2656 1.89063 -5.74242
HEad  -20.5441 -1.03675 -4.1047
LeftShoulder1  1.63037 -2.78418 -19.4302
LeftArm  12.5363 16.8404 -48.3922
LeftForeArm  78.0983 -79.6236 -68.6565
LeftHand  -2.48552 -6.36104 24.5016
RightShoulder  0.328977 -2.01278 15.724
RightArm  -25.2713 5.01121 39.9036
RightForeArm  14.4253 64.7473 23.3887
RightHand  -2.14768 5.93556 -22.0539
LeftUpLeg  -38.6601 7.70199 11.5244
LeftLeg  29.9152 -5.3854 -2.96532
LeftFoot  -5.70861 0.951041 -18.7242
LeftToes  -5.54824e-011 -8.71001e-011 8.3852e-012
24
root  14.3928 36.9562 13.8898 -161.246 -14.4758 177.143
RightUpLeg  -9.86793 -15.3877 -30.9342
RightLeg  4.76558 -17.4369 -7.72935
RightFoot  35.1315 -12.563 29.1899
RightToes  2.32829e-010 0 -3.6325e-017
Spine  12.6836 1.13347 -2.72276
Spine1  14.6049 1.33151 -2.09865
HEad  -23.4753 0.157795 -3.90985
LeftShoulder1  1.56064 -2.64341 -18.848
LeftArm  13.1521 13.7954 -49.9713
LeftForeArm  92.936 -80.1439 -87.5576
LeftHand  -2.06519 -5.92396 21.3126
RightShoulder  0.56162 -1.15957 17.5735
RightArm  -22.1648 -3.96741 43.8173
RightForeArm  16.2085 67.822 27.6062
RightHand  -1.98837 5.76995 -20.7642
LeftUpLeg  -37.4769 2.58055 13.0081
LeftLeg  31.6995 4.16577 3.18264
LeftFoot  -6.87857 0.660639 -15.9135
LeftToes  -5.54824e-011 -8.71001e-011 8.3852e-012
25
root  13.1302 37.1021 13.6541 -163.755 -11.0767 178.055
RightUpLeg  -9.97304 -14.1213 -30.5544
RightLeg  6.398 -16.4401 -6.90026
RightFoot  33.8229 -10.8086 26.237
RightToes  2.32829e-010 0 -3.6325e-017
Spine  12.7525 2.02343 -7.34139
Spine1  16.7984 0.285564 2.36853
HEad  -25.4015 2.22202 -3.66966
LeftShoulder1  1.61548 -2.85404 -18.8725
LeftArm  13.3767 9.16918 -49.856
LeftForeArm  96.3475 -79.619 -99.754
LeftHand  -1.94313 -4.69989 22.409
RightShoulder  0.745582 -0.477527 18.2421
RightArm  -20.6129 -10.6068 47.9744
RightForeArm  19.6243 71.0143 33.6565
RightHand  -1.83348 5.4515 -19.7467
LeftUpLeg  -34.7423 -0.355891 12.807
LeftLeg  35.5043 8.5149 6.79968
LeftFoot  -7.93751 0.526998 -16.1638
LeftToes  -5.54824e-011 -8.71001e-011 8.3852e-012
26
root  11.9607 37.1592 13.452 -167.316 -8.08635 177.494
RightUpLeg  -8.60652 -9.65845 -31.6228
RightLeg  10.6046 -19.285 -6.98111
RightFoot  29.0872 -9.71746 26.574
RightToes  2.32829e-010 0 -3.6325e-017
Spine  13.4536 2.60581 -11.9362
Spine1  19.0578 -0.931609 5.35832
HEad  -25.2814 4.27025 -3.75286
LeftShoulder1  1.6189 -2.96572 -18.452
LeftArm  12.8922 3.73325 -49.6652
LeftForeArm  87.3333 -79.457 -95.8158
LeftHand  -1.9513 -3.63509 25.0163
RightShoulder  0.782508 -0.331566 18.2481
RightArm  -19.3995 -16.0465 52.2325
RightForeArm  26.8122 74.1828 42.5657
RightHand  -1.76181 5.16763 -19.4877
LeftUpLeg  -30.0261 -0.0754016 10.1288
LeftLeg  36.9343 8.06975 6.84441
LeftFoot  -10.7302 0.157277 -16.2134
LeftToes  -5.54824e-011 -8.71001e-011 8.3852e-012
27
root  10.8376 37.3431 13.1895 -169.631 -5.7144 176.541
RightUpLeg  -8.52035 -3.54297 -31.9207
RightLeg  16.5115 -24.3511 -8.40036
RightFoot  23.8396 -7.89167 25.0435
RightToes  2.32829e-010 0 -3.6325e-017
Spine  13.4778 2.39276 -14.95
Spine1  19.9328 -2.12049 6.46403
HEad  -24.0166 6.08576 -4.08211
LeftShoulder1  1.47144 -2.63313 -17.3147
LeftArm  11.4635 0.209499 -50.8095
LeftForeArm  78.8588 -79.5223 -87.1043
LeftHand  -1.84649 -2.82398 25.9547
RightShoulder  0.689128 -0.633022 17.5346
RightArm  -17.4653 -20.877 55.8783
RightForeArm  39.3748 76.9545 55.9941
RightHand  -1.701 5.04925 -19.038
LeftUpLeg  -25.3535 1.23491 6.73694
LeftLeg  35.6896 8.40874 6.80445
LeftFoot  -13.3978 -0.174944 -14.068
LeftToes  -5.54824e-011 -8.71001e-011 8.3852e-012
28
root  9.7407 37.7635 12.8637 -170.297 -3.24156 176.439
RightUpLeg  -11.1548 -1.56517 -29.2139
RightLeg  22.6498 -22.0056 -9.81088
RightFoot  17.4855 -5.50213 21.6279
RightToes  2.32829e-010 0 -3.6325e-017
Spine  12.7276 1.52875 -15.8555
Spine1  19.4589 -3.13111 6.70936
HEad  -23 7.91682 -4.73717
LeftShoulder1  1.31323 -2.14146 -16.5494
LeftArm  9.3867 0.089755 -52.5226
LeftForeArm  82.1176 -79.5529 -89.6119
LeftHand  -1.76302 -2.4148 26.0798
RightShoulder  0.618909 -0.809839 16.4347
RightArm  -14.2519 -24.303 57.9087
RightForeArm  58.3765 78.77 75.6719
RightHand  -1.55534 4.84175 -17.7933
LeftUpLeg  -22.1732 1.1535 4.40663
LeftLeg  33.6714 11.2386 8.31569
LeftFoot  -13.3655 -0.137141 -12.014
LeftToes  -5.54824e-011 -8.71001e-011 8.3852e-012
29
root  8.72361 38.3918 12.4996 -170.656 0.1389 177.536
RightUpLeg  -14.755 -1.35224 -23.8852
RightLeg  26.9787 -14.524 -8.10551
RightFoot  10.4798 -3.73622 19.6635
RightToes  2.32829e-010 0 -3.6325e-017
Spine  11.8245 0.672687 -14.7315
Spine1  19.0372 -3.54605 6.32526
HEad  -22.4458 10.1648 -5.84134
LeftShoulder1  1.25316 -1.86311 -16.6364
LeftArm  7.56036 2.16044 -53.8282
LeftForeArm  94.8415 -79.2407 -103.221
LeftHand  -1.8559 -2.51833 27.0416
RightShoulder  0.629788 -0.633247 15.2779
RightArm  -9.76548 -25.4842 58.8538
RightForeArm  78.4666 79.0544 96.1797
RightHand  -1.40088 4.47509 -16.6592
LeftUpLeg  -19.8654 0.282517 3.70606
LeftLeg  32.3644 14.6703 10.1748
LeftFoot  -10.4101 0.180369 -13.0949
LeftToes  -5.54824e-011 -8.71001e-011 8.3852e-012
30
root  7.81588 39.1087 12.0927 -171.439 4.45327 179.229
RightUpLeg  -17.1481 -1.71445 -17.0929
RightLeg  28.7222 -7.69759 -4.80076
RightFoot  5.29109 -3.10539 21.3105
RightToes  2.32829e-010 0 -3.6325e-017
Spine  10.98 0.249259 -12.675
Spine1  19.3811 -3.36901 5.6927
HEad  -21.5181 13.0774 -7.1783
LeftShoulder1  1.22402 -1.71227 -16.7598
LeftArm  6.47967 4.77101 -55.2991
LeftForeArm  105.575 -78.5552 -114.094
LeftHand  -2.04772 -2.90034 28.4143
RightShoulder  0.639309 -0.435052 14.0275
RightArm  -4.61905 -24.6067 59.9358
RightForeArm  90.3193 78.6386 107.373
RightHand  -1.33579 4.26372 -16.2399
LeftUpLeg  -17.5473 1.0216 3.99389
LeftLeg  31.7885 16.6276 11.1815
LeftFoot  -5.86021 0.828738 -16.3945
LeftToes  -5.54824e-011 -8.71001e-011 8.3852e-012
31
root  7.01559 39.7459 11.6622 -172.169 8.92488 -179.302
RightUpLeg  -18.0295 -2.72101 -10.2938
RightLeg  28.406 -3.86493 -2.49853
RightFoot  1.98047 -3.07713 26.098
RightToes  2.32829e-010 0 -3.6325e-017
Spine  9.96064 0.161655 -11.1808
Spine1  19.9447 -3.15941 5.72664
HEad  -19.9016 16.2723 -8.38627
LeftShoulder1  1.15922 -1.47973 -16.5356
LeftArm  6.20877 7.17911 -57.3631
LeftForeArm  109.278 -78.35 -116.773
LeftHand  -2.17885 -3.21425 29.1008
RightShoulder  0.606342 -0.448305 12.9302
RightArm  0.0520318 -22.7176 61.1038
RightForeArm  95.8819 78.4972 110.813
RightHand  -1.26254 4.26573 -15.3653
LeftUpLeg  -15.9099 2.51257 4.55654
LeftLeg  32.1333 16.1698 11.0293
LeftFoot  -0.696213 1.67827 -17.971
LeftToes  -5.54824e-011 -8.71001e-011 8.3852e-012
